<?xml version="1.0" encoding="UTF-8" standalone="no"?><!DOCTYPE svg PUBLIC "-//W3C//DTD SVG 1.1//EN" "http://www.w3.org/Graphics/SVG/1.1/DTD/svg11.dtd"><svg width="100%" height="100%" viewBox="0 0 800 800" version="1.1" xmlns="http://www.w3.org/2000/svg" xmlns:xlink="http://www.w3.org/1999/xlink" xml:space="preserve" xmlns:serif="http://www.serif.com/" style="fill-rule:evenodd;clip-rule:evenodd;stroke-linejoin:round;stroke-miterlimit:2;"><path id="_1" serif:id="1" d="M121.91,596.973c-0,-13.798 -11.202,-25 -25,-25l-71.91,-0c-13.798,-0 -25,11.202 -25,25l0,50c0,13.798 11.202,25 25,25l71.91,-0c13.798,-0 25,-11.202 25,-25l-0,-50Z" style="fill:#9bbaff;"/><path id="_2" serif:id="2" d="M287.894,502.45c0,-16.821 -13.656,-30.477 -30.477,-30.477l-60.955,-0c-16.821,-0 -30.478,13.656 -30.478,30.477l0,139.045c0,16.821 13.657,30.478 30.478,30.478l60.955,-0c16.821,-0 30.477,-13.657 30.477,-30.478l0,-139.045Z" style="fill:#95cdf5;"/><path id="_3" serif:id="3" d="M460.955,402.45c-0,-16.821 -13.657,-30.477 -30.478,-30.477l-60.954,-0c-16.821,-0 -30.478,13.656 -30.478,30.477l0,239.045c0,16.821 13.657,30.478 30.478,30.478l60.954,-0c16.821,-0 30.478,-13.657 30.478,-30.478l-0,-239.045Z" style="fill:#a5eeff;"/><path id="_4" serif:id="4" d="M628.038,302.45c-0,-16.821 -13.657,-30.477 -30.478,-30.477l-60.955,-0c-16.821,-0 -30.477,13.656 -30.477,30.477l-0,339.045c-0,16.821 13.656,30.478 30.477,30.478l60.955,-0c16.821,-0 30.478,-13.657 30.478,-30.478l-0,-339.045Z" style="fill:#95f5f2;"/><path id="_5" serif:id="5" d="M800,202.45c0,-16.821 -13.656,-30.477 -30.477,-30.477l-60.955,-0c-16.821,-0 -30.478,13.656 -30.478,30.477l0,439.045c0,16.821 13.657,30.478 30.478,30.478l60.955,-0c16.821,-0 30.477,-13.657 30.477,-30.478l0,-439.045Z" style="fill:#9bffe6;"/></svg>